<mxfile host="app.diagrams.net" agent="Mozilla/5.0 (Windows NT 10.0; Win64; x64) AppleWebKit/537.36 (KHTML, like Gecko) Chrome/129.0.0.0 Safari/537.36" version="24.7.16">
  <diagram name="PÃ¡gina-1" id="vny3V4UdMCm8Py3Ufpd4">
    <mxGraphModel dx="3217" dy="1213" grid="1" gridSize="10" guides="1" tooltips="1" connect="1" arrows="1" fold="1" page="1" pageScale="1" pageWidth="827" pageHeight="1169" math="0" shadow="0">
      <root>
        <mxCell id="0" />
        <mxCell id="1" parent="0" />
        <mxCell id="Dz1jpCO-yFqrb8lOimei-1" value="FILME" style="whiteSpace=wrap;html=1;align=center;" vertex="1" parent="1">
          <mxGeometry x="190" y="210" width="100" height="40" as="geometry" />
        </mxCell>
        <mxCell id="Dz1jpCO-yFqrb8lOimei-2" value="&lt;span style=&quot;font-size:12.0pt;font-family:&amp;quot;Calibri&amp;quot;,sans-serif;&lt;br/&gt;mso-fareast-font-family:Calibri;mso-ansi-language:PT;mso-fareast-language:PT;&lt;br/&gt;mso-bidi-language:AR-SA&quot;&gt;Titulo&lt;/span&gt;" style="ellipse;whiteSpace=wrap;html=1;align=center;" vertex="1" parent="1">
          <mxGeometry x="190" y="290" width="100" height="40" as="geometry" />
        </mxCell>
        <mxCell id="Dz1jpCO-yFqrb8lOimei-3" value="Codigo" style="ellipse;whiteSpace=wrap;html=1;align=center;fontStyle=4;" vertex="1" parent="1">
          <mxGeometry x="190" y="110" width="100" height="40" as="geometry" />
        </mxCell>
        <mxCell id="Dz1jpCO-yFqrb8lOimei-4" value="&lt;span style=&quot;font-size:12.0pt;font-family:&amp;quot;Calibri&amp;quot;,sans-serif;&lt;br/&gt;mso-fareast-font-family:Calibri;mso-ansi-language:PT;mso-fareast-language:PT;&lt;br/&gt;mso-bidi-language:AR-SA&quot;&gt;Ano&lt;/span&gt;" style="ellipse;whiteSpace=wrap;html=1;align=center;" vertex="1" parent="1">
          <mxGeometry x="364" y="210" width="100" height="40" as="geometry" />
        </mxCell>
        <mxCell id="Dz1jpCO-yFqrb8lOimei-6" value="&lt;span id=&quot;docs-internal-guid-bca87c95-7fff-7ebc-04bb-02be439c24cd&quot;&gt;&lt;span style=&quot;font-size: 12pt; font-family: Calibri, sans-serif; background-color: transparent; font-variant-numeric: normal; font-variant-east-asian: normal; font-variant-alternates: normal; font-variant-position: normal; vertical-align: baseline; white-space-collapse: preserve;&quot;&gt;Direcao&lt;/span&gt;&lt;/span&gt;" style="ellipse;whiteSpace=wrap;html=1;align=center;" vertex="1" parent="1">
          <mxGeometry x="50" y="210" width="100" height="40" as="geometry" />
        </mxCell>
        <mxCell id="Dz1jpCO-yFqrb8lOimei-7" value="FILME" style="whiteSpace=wrap;html=1;align=center;" vertex="1" parent="1">
          <mxGeometry x="190" y="210" width="100" height="40" as="geometry" />
        </mxCell>
        <mxCell id="Dz1jpCO-yFqrb8lOimei-8" value="&lt;span id=&quot;docs-internal-guid-89dd8742-7fff-e09b-a8a7-ee018c58d726&quot;&gt;&lt;span style=&quot;font-size: 12pt; font-family: Calibri, sans-serif; background-color: transparent; font-variant-numeric: normal; font-variant-east-asian: normal; font-variant-alternates: normal; font-variant-position: normal; vertical-align: baseline; white-space-collapse: preserve;&quot;&gt;ATOR&lt;/span&gt;&lt;/span&gt;" style="whiteSpace=wrap;html=1;align=center;" vertex="1" parent="1">
          <mxGeometry x="725" y="140" width="100" height="40" as="geometry" />
        </mxCell>
        <mxCell id="Dz1jpCO-yFqrb8lOimei-12" value="" style="endArrow=none;html=1;rounded=0;exitX=1;exitY=0.5;exitDx=0;exitDy=0;entryX=0;entryY=0.5;entryDx=0;entryDy=0;" edge="1" parent="1" source="Dz1jpCO-yFqrb8lOimei-7" target="Dz1jpCO-yFqrb8lOimei-4">
          <mxGeometry relative="1" as="geometry">
            <mxPoint x="330" y="380" as="sourcePoint" />
            <mxPoint x="490" y="380" as="targetPoint" />
          </mxGeometry>
        </mxCell>
        <mxCell id="Dz1jpCO-yFqrb8lOimei-13" value="" style="endArrow=none;html=1;rounded=0;exitX=0.5;exitY=0;exitDx=0;exitDy=0;entryX=0.5;entryY=1;entryDx=0;entryDy=0;" edge="1" parent="1" source="Dz1jpCO-yFqrb8lOimei-7" target="Dz1jpCO-yFqrb8lOimei-3">
          <mxGeometry relative="1" as="geometry">
            <mxPoint x="300" y="240" as="sourcePoint" />
            <mxPoint x="374" y="240" as="targetPoint" />
          </mxGeometry>
        </mxCell>
        <mxCell id="Dz1jpCO-yFqrb8lOimei-15" value="" style="endArrow=none;html=1;rounded=0;exitX=0.5;exitY=1;exitDx=0;exitDy=0;entryX=0.5;entryY=0;entryDx=0;entryDy=0;" edge="1" parent="1" source="Dz1jpCO-yFqrb8lOimei-7" target="Dz1jpCO-yFqrb8lOimei-2">
          <mxGeometry relative="1" as="geometry">
            <mxPoint x="250" y="220" as="sourcePoint" />
            <mxPoint x="250" y="160" as="targetPoint" />
          </mxGeometry>
        </mxCell>
        <mxCell id="Dz1jpCO-yFqrb8lOimei-16" value="" style="endArrow=none;html=1;rounded=0;exitX=0;exitY=0.5;exitDx=0;exitDy=0;entryX=1;entryY=0.5;entryDx=0;entryDy=0;" edge="1" parent="1" source="Dz1jpCO-yFqrb8lOimei-7" target="Dz1jpCO-yFqrb8lOimei-6">
          <mxGeometry relative="1" as="geometry">
            <mxPoint x="250" y="260" as="sourcePoint" />
            <mxPoint x="250" y="300" as="targetPoint" />
          </mxGeometry>
        </mxCell>
        <mxCell id="Dz1jpCO-yFqrb8lOimei-17" value="&lt;font face=&quot;Calibri, sans-serif&quot;&gt;&lt;span style=&quot;font-size: 16px;&quot;&gt;Nome&lt;/span&gt;&lt;/font&gt;" style="ellipse;whiteSpace=wrap;html=1;align=center;" vertex="1" parent="1">
          <mxGeometry x="665" y="250" width="100" height="40" as="geometry" />
        </mxCell>
        <mxCell id="Dz1jpCO-yFqrb8lOimei-18" value="&lt;span id=&quot;docs-internal-guid-e030a326-7fff-61d8-6dcf-9328ce3980a2&quot;&gt;&lt;span style=&quot;font-size: 12pt; font-family: Calibri, sans-serif; background-color: transparent; font-variant-numeric: normal; font-variant-east-asian: normal; font-variant-alternates: normal; font-variant-position: normal; vertical-align: baseline; white-space-collapse: preserve;&quot;&gt;DataNascimento&lt;/span&gt;&lt;/span&gt;" style="ellipse;whiteSpace=wrap;html=1;align=center;" vertex="1" parent="1">
          <mxGeometry x="875" y="140" width="120" height="40" as="geometry" />
        </mxCell>
        <mxCell id="Dz1jpCO-yFqrb8lOimei-19" value="&lt;span id=&quot;docs-internal-guid-4cc98947-7fff-fe0a-346b-40fa3c7adf86&quot;&gt;&lt;span style=&quot;font-size: 12pt; font-family: Calibri, sans-serif; background-color: transparent; font-variant-numeric: normal; font-variant-east-asian: normal; font-variant-alternates: normal; font-variant-position: normal; vertical-align: baseline; white-space-collapse: preserve;&quot;&gt;Salario&lt;/span&gt;&lt;/span&gt;" style="ellipse;whiteSpace=wrap;html=1;align=center;" vertex="1" parent="1">
          <mxGeometry x="565" y="140" width="100" height="40" as="geometry" />
        </mxCell>
        <mxCell id="Dz1jpCO-yFqrb8lOimei-21" value="&lt;span id=&quot;docs-internal-guid-233ec59d-7fff-48fa-0527-de12c0830f19&quot;&gt;&lt;span style=&quot;font-size: 12pt; font-family: Calibri, sans-serif; background-color: transparent; font-variant-numeric: normal; font-variant-east-asian: normal; font-variant-alternates: normal; font-variant-position: normal; text-decoration-skip-ink: none; vertical-align: baseline; white-space-collapse: preserve;&quot;&gt;NContribuinte&lt;/span&gt;&lt;/span&gt;" style="ellipse;whiteSpace=wrap;html=1;align=center;fontStyle=4;" vertex="1" parent="1">
          <mxGeometry x="645" y="40" width="100" height="40" as="geometry" />
        </mxCell>
        <mxCell id="Dz1jpCO-yFqrb8lOimei-22" value="&lt;span id=&quot;docs-internal-guid-a4a698d6-7fff-c8c4-7cca-d45558706432&quot;&gt;&lt;span style=&quot;font-size: 12pt; font-family: Calibri, sans-serif; background-color: transparent; font-variant-numeric: normal; font-variant-east-asian: normal; font-variant-alternates: normal; font-variant-position: normal; vertical-align: baseline; white-space-collapse: preserve;&quot;&gt;&amp;nbsp;Idade&lt;/span&gt;&lt;/span&gt;" style="ellipse;whiteSpace=wrap;html=1;align=center;dashed=1;" vertex="1" parent="1">
          <mxGeometry x="835" y="50" width="100" height="40" as="geometry" />
        </mxCell>
        <mxCell id="Dz1jpCO-yFqrb8lOimei-25" value="" style="endArrow=none;html=1;rounded=0;dashed=1;dashPattern=1 2;exitX=0.75;exitY=0;exitDx=0;exitDy=0;entryX=0.5;entryY=1;entryDx=0;entryDy=0;" edge="1" parent="1" source="Dz1jpCO-yFqrb8lOimei-8" target="Dz1jpCO-yFqrb8lOimei-22">
          <mxGeometry relative="1" as="geometry">
            <mxPoint x="335" y="250" as="sourcePoint" />
            <mxPoint x="495" y="250" as="targetPoint" />
          </mxGeometry>
        </mxCell>
        <mxCell id="Dz1jpCO-yFqrb8lOimei-27" value="" style="endArrow=none;html=1;rounded=0;exitX=0.5;exitY=0;exitDx=0;exitDy=0;entryX=0.5;entryY=1;entryDx=0;entryDy=0;" edge="1" parent="1" source="Dz1jpCO-yFqrb8lOimei-8" target="Dz1jpCO-yFqrb8lOimei-21">
          <mxGeometry relative="1" as="geometry">
            <mxPoint x="525" y="219" as="sourcePoint" />
            <mxPoint x="685" y="219" as="targetPoint" />
          </mxGeometry>
        </mxCell>
        <mxCell id="Dz1jpCO-yFqrb8lOimei-28" value="" style="endArrow=none;html=1;rounded=0;exitX=0.5;exitY=0;exitDx=0;exitDy=0;entryX=0.5;entryY=1;entryDx=0;entryDy=0;" edge="1" parent="1" source="Dz1jpCO-yFqrb8lOimei-17" target="Dz1jpCO-yFqrb8lOimei-8">
          <mxGeometry relative="1" as="geometry">
            <mxPoint x="785" y="150" as="sourcePoint" />
            <mxPoint x="705" y="90" as="targetPoint" />
          </mxGeometry>
        </mxCell>
        <mxCell id="Dz1jpCO-yFqrb8lOimei-29" value="" style="endArrow=none;html=1;rounded=0;exitX=0;exitY=0.5;exitDx=0;exitDy=0;entryX=1;entryY=0.5;entryDx=0;entryDy=0;" edge="1" parent="1" source="Dz1jpCO-yFqrb8lOimei-18" target="Dz1jpCO-yFqrb8lOimei-8">
          <mxGeometry relative="1" as="geometry">
            <mxPoint x="795" y="160" as="sourcePoint" />
            <mxPoint x="715" y="100" as="targetPoint" />
          </mxGeometry>
        </mxCell>
        <mxCell id="Dz1jpCO-yFqrb8lOimei-30" value="" style="endArrow=none;html=1;rounded=0;exitX=0;exitY=0.5;exitDx=0;exitDy=0;entryX=1;entryY=0.5;entryDx=0;entryDy=0;" edge="1" parent="1" source="Dz1jpCO-yFqrb8lOimei-8" target="Dz1jpCO-yFqrb8lOimei-19">
          <mxGeometry relative="1" as="geometry">
            <mxPoint x="805" y="170" as="sourcePoint" />
            <mxPoint x="725" y="110" as="targetPoint" />
          </mxGeometry>
        </mxCell>
        <mxCell id="Dz1jpCO-yFqrb8lOimei-31" value="&lt;span style=&quot;font-family: Calibri, sans-serif; font-size: 16px; white-space-collapse: preserve;&quot;&gt;REALIZADOR&lt;/span&gt;" style="whiteSpace=wrap;html=1;align=center;" vertex="1" parent="1">
          <mxGeometry x="690" y="395" width="100" height="40" as="geometry" />
        </mxCell>
        <mxCell id="Dz1jpCO-yFqrb8lOimei-32" value="&lt;font face=&quot;Calibri, sans-serif&quot;&gt;&lt;span style=&quot;font-size: 16px;&quot;&gt;Nome&lt;/span&gt;&lt;/font&gt;" style="ellipse;whiteSpace=wrap;html=1;align=center;" vertex="1" parent="1">
          <mxGeometry x="690" y="490" width="100" height="40" as="geometry" />
        </mxCell>
        <mxCell id="Dz1jpCO-yFqrb8lOimei-33" value="&lt;span id=&quot;docs-internal-guid-e030a326-7fff-61d8-6dcf-9328ce3980a2&quot;&gt;&lt;span style=&quot;font-size: 12pt; font-family: Calibri, sans-serif; background-color: transparent; font-variant-numeric: normal; font-variant-east-asian: normal; font-variant-alternates: normal; font-variant-position: normal; vertical-align: baseline; white-space-collapse: preserve;&quot;&gt;DataNascimento&lt;/span&gt;&lt;/span&gt;" style="ellipse;whiteSpace=wrap;html=1;align=center;" vertex="1" parent="1">
          <mxGeometry x="840" y="395" width="120" height="40" as="geometry" />
        </mxCell>
        <mxCell id="Dz1jpCO-yFqrb8lOimei-35" value="&lt;span id=&quot;docs-internal-guid-233ec59d-7fff-48fa-0527-de12c0830f19&quot;&gt;&lt;span style=&quot;font-size: 12pt; font-family: Calibri, sans-serif; background-color: transparent; font-variant-numeric: normal; font-variant-east-asian: normal; font-variant-alternates: normal; font-variant-position: normal; text-decoration-skip-ink: none; vertical-align: baseline; white-space-collapse: preserve;&quot;&gt;NContribuinte&lt;/span&gt;&lt;/span&gt;" style="ellipse;whiteSpace=wrap;html=1;align=center;fontStyle=4;" vertex="1" parent="1">
          <mxGeometry x="690" y="320" width="100" height="40" as="geometry" />
        </mxCell>
        <mxCell id="Dz1jpCO-yFqrb8lOimei-36" value="&lt;span id=&quot;docs-internal-guid-a4a698d6-7fff-c8c4-7cca-d45558706432&quot;&gt;&lt;span style=&quot;font-size: 12pt; font-family: Calibri, sans-serif; background-color: transparent; font-variant-numeric: normal; font-variant-east-asian: normal; font-variant-alternates: normal; font-variant-position: normal; vertical-align: baseline; white-space-collapse: preserve;&quot;&gt;&amp;nbsp;Idade&lt;/span&gt;&lt;/span&gt;" style="ellipse;whiteSpace=wrap;html=1;align=center;dashed=1;" vertex="1" parent="1">
          <mxGeometry x="490" y="400" width="100" height="40" as="geometry" />
        </mxCell>
        <mxCell id="Dz1jpCO-yFqrb8lOimei-37" value="" style="endArrow=none;html=1;rounded=0;dashed=1;dashPattern=1 2;exitX=0;exitY=0.5;exitDx=0;exitDy=0;entryX=1;entryY=0.5;entryDx=0;entryDy=0;" edge="1" parent="1" source="Dz1jpCO-yFqrb8lOimei-31" target="Dz1jpCO-yFqrb8lOimei-36">
          <mxGeometry relative="1" as="geometry">
            <mxPoint x="420" y="480" as="sourcePoint" />
            <mxPoint x="580" y="480" as="targetPoint" />
          </mxGeometry>
        </mxCell>
        <mxCell id="Dz1jpCO-yFqrb8lOimei-38" value="" style="endArrow=none;html=1;rounded=0;exitX=0.5;exitY=0;exitDx=0;exitDy=0;entryX=0.5;entryY=1;entryDx=0;entryDy=0;" edge="1" parent="1" source="Dz1jpCO-yFqrb8lOimei-31" target="Dz1jpCO-yFqrb8lOimei-35">
          <mxGeometry relative="1" as="geometry">
            <mxPoint x="490" y="474" as="sourcePoint" />
            <mxPoint x="650" y="474" as="targetPoint" />
          </mxGeometry>
        </mxCell>
        <mxCell id="Dz1jpCO-yFqrb8lOimei-39" value="" style="endArrow=none;html=1;rounded=0;exitX=0.5;exitY=0;exitDx=0;exitDy=0;entryX=0.5;entryY=1;entryDx=0;entryDy=0;" edge="1" parent="1" source="Dz1jpCO-yFqrb8lOimei-32" target="Dz1jpCO-yFqrb8lOimei-31">
          <mxGeometry relative="1" as="geometry">
            <mxPoint x="750" y="405" as="sourcePoint" />
            <mxPoint x="670" y="345" as="targetPoint" />
          </mxGeometry>
        </mxCell>
        <mxCell id="Dz1jpCO-yFqrb8lOimei-40" value="" style="endArrow=none;html=1;rounded=0;exitX=0;exitY=0.5;exitDx=0;exitDy=0;entryX=1;entryY=0.5;entryDx=0;entryDy=0;" edge="1" parent="1" source="Dz1jpCO-yFqrb8lOimei-33" target="Dz1jpCO-yFqrb8lOimei-31">
          <mxGeometry relative="1" as="geometry">
            <mxPoint x="840.0000000000273" y="415" as="sourcePoint" />
            <mxPoint x="680" y="355" as="targetPoint" />
          </mxGeometry>
        </mxCell>
        <mxCell id="Dz1jpCO-yFqrb8lOimei-42" value="&lt;span style=&quot;font-family: Calibri, sans-serif; font-size: 16px; white-space-collapse: preserve;&quot;&gt;PRODUTOR&lt;/span&gt;" style="whiteSpace=wrap;html=1;align=center;" vertex="1" parent="1">
          <mxGeometry x="144" y="540" width="100" height="40" as="geometry" />
        </mxCell>
        <mxCell id="Dz1jpCO-yFqrb8lOimei-43" value="&lt;font face=&quot;Calibri, sans-serif&quot;&gt;&lt;span style=&quot;font-size: 16px;&quot;&gt;Nome&lt;/span&gt;&lt;/font&gt;" style="ellipse;whiteSpace=wrap;html=1;align=center;" vertex="1" parent="1">
          <mxGeometry x="144" y="650" width="100" height="40" as="geometry" />
        </mxCell>
        <mxCell id="Dz1jpCO-yFqrb8lOimei-44" value="&lt;span id=&quot;docs-internal-guid-e030a326-7fff-61d8-6dcf-9328ce3980a2&quot;&gt;&lt;span style=&quot;font-size: 12pt; font-family: Calibri, sans-serif; background-color: transparent; font-variant-numeric: normal; font-variant-east-asian: normal; font-variant-alternates: normal; font-variant-position: normal; vertical-align: baseline; white-space-collapse: preserve;&quot;&gt;DataNascimento&lt;/span&gt;&lt;/span&gt;" style="ellipse;whiteSpace=wrap;html=1;align=center;" vertex="1" parent="1">
          <mxGeometry x="294" y="540" width="120" height="40" as="geometry" />
        </mxCell>
        <mxCell id="Dz1jpCO-yFqrb8lOimei-45" value="&lt;span id=&quot;docs-internal-guid-233ec59d-7fff-48fa-0527-de12c0830f19&quot;&gt;&lt;span style=&quot;font-size: 12pt; font-family: Calibri, sans-serif; background-color: transparent; font-variant-numeric: normal; font-variant-east-asian: normal; font-variant-alternates: normal; font-variant-position: normal; text-decoration-skip-ink: none; vertical-align: baseline; white-space-collapse: preserve;&quot;&gt;NContribuinte&lt;/span&gt;&lt;/span&gt;" style="ellipse;whiteSpace=wrap;html=1;align=center;fontStyle=4;" vertex="1" parent="1">
          <mxGeometry x="144" y="440" width="100" height="40" as="geometry" />
        </mxCell>
        <mxCell id="Dz1jpCO-yFqrb8lOimei-46" value="&lt;span id=&quot;docs-internal-guid-a4a698d6-7fff-c8c4-7cca-d45558706432&quot;&gt;&lt;span style=&quot;font-size: 12pt; font-family: Calibri, sans-serif; background-color: transparent; font-variant-numeric: normal; font-variant-east-asian: normal; font-variant-alternates: normal; font-variant-position: normal; vertical-align: baseline; white-space-collapse: preserve;&quot;&gt;&amp;nbsp;Idade&lt;/span&gt;&lt;/span&gt;" style="ellipse;whiteSpace=wrap;html=1;align=center;dashed=1;" vertex="1" parent="1">
          <mxGeometry x="-16" y="540" width="100" height="40" as="geometry" />
        </mxCell>
        <mxCell id="Dz1jpCO-yFqrb8lOimei-47" value="" style="endArrow=none;html=1;rounded=0;dashed=1;dashPattern=1 2;exitX=0;exitY=0.5;exitDx=0;exitDy=0;entryX=1;entryY=0.5;entryDx=0;entryDy=0;" edge="1" parent="1" source="Dz1jpCO-yFqrb8lOimei-42" target="Dz1jpCO-yFqrb8lOimei-46">
          <mxGeometry relative="1" as="geometry">
            <mxPoint x="-246" y="650" as="sourcePoint" />
            <mxPoint x="-86" y="650" as="targetPoint" />
          </mxGeometry>
        </mxCell>
        <mxCell id="Dz1jpCO-yFqrb8lOimei-48" value="" style="endArrow=none;html=1;rounded=0;exitX=0.5;exitY=0;exitDx=0;exitDy=0;entryX=0.5;entryY=1;entryDx=0;entryDy=0;" edge="1" parent="1" source="Dz1jpCO-yFqrb8lOimei-42" target="Dz1jpCO-yFqrb8lOimei-45">
          <mxGeometry relative="1" as="geometry">
            <mxPoint x="-56" y="619" as="sourcePoint" />
            <mxPoint x="104" y="619" as="targetPoint" />
          </mxGeometry>
        </mxCell>
        <mxCell id="Dz1jpCO-yFqrb8lOimei-49" value="" style="endArrow=none;html=1;rounded=0;exitX=0.5;exitY=0;exitDx=0;exitDy=0;entryX=0.5;entryY=1;entryDx=0;entryDy=0;" edge="1" parent="1" source="Dz1jpCO-yFqrb8lOimei-43" target="Dz1jpCO-yFqrb8lOimei-42">
          <mxGeometry relative="1" as="geometry">
            <mxPoint x="204" y="550" as="sourcePoint" />
            <mxPoint x="124" y="490" as="targetPoint" />
          </mxGeometry>
        </mxCell>
        <mxCell id="Dz1jpCO-yFqrb8lOimei-50" value="" style="endArrow=none;html=1;rounded=0;exitX=0;exitY=0.5;exitDx=0;exitDy=0;entryX=1;entryY=0.5;entryDx=0;entryDy=0;" edge="1" parent="1" source="Dz1jpCO-yFqrb8lOimei-44" target="Dz1jpCO-yFqrb8lOimei-42">
          <mxGeometry relative="1" as="geometry">
            <mxPoint x="214" y="560" as="sourcePoint" />
            <mxPoint x="134" y="500" as="targetPoint" />
          </mxGeometry>
        </mxCell>
        <mxCell id="Dz1jpCO-yFqrb8lOimei-51" value="&lt;span style=&quot;font-family: Calibri, sans-serif; font-size: 16px; white-space-collapse: preserve;&quot;&gt;ORCAMENTO&lt;/span&gt;" style="whiteSpace=wrap;html=1;align=center;" vertex="1" parent="1">
          <mxGeometry x="730" y="670" width="100" height="40" as="geometry" />
        </mxCell>
        <mxCell id="Dz1jpCO-yFqrb8lOimei-52" value="&lt;span id=&quot;docs-internal-guid-ed9be862-7fff-6bed-092a-145d1477adcd&quot;&gt;&lt;span style=&quot;font-size: 12pt; font-family: Calibri, sans-serif; background-color: transparent; font-variant-numeric: normal; font-variant-east-asian: normal; font-variant-alternates: normal; font-variant-position: normal; vertical-align: baseline; white-space-collapse: preserve;&quot;&gt;Aprovado?&lt;/span&gt;&lt;/span&gt;" style="ellipse;whiteSpace=wrap;html=1;align=center;" vertex="1" parent="1">
          <mxGeometry x="730" y="770" width="100" height="40" as="geometry" />
        </mxCell>
        <mxCell id="Dz1jpCO-yFqrb8lOimei-53" value="&lt;span id=&quot;docs-internal-guid-438ebfcd-7fff-fac7-5c89-ff6790d7f02d&quot;&gt;&lt;span style=&quot;font-size: 12pt; font-family: Calibri, sans-serif; background-color: transparent; font-variant-numeric: normal; font-variant-east-asian: normal; font-variant-alternates: normal; font-variant-position: normal; vertical-align: baseline; white-space-collapse: preserve;&quot;&gt;Valor&lt;/span&gt;&lt;/span&gt;" style="ellipse;whiteSpace=wrap;html=1;align=center;" vertex="1" parent="1">
          <mxGeometry x="880" y="670" width="120" height="40" as="geometry" />
        </mxCell>
        <mxCell id="Dz1jpCO-yFqrb8lOimei-54" value="&lt;span id=&quot;docs-internal-guid-47b88fdf-7fff-cf07-f8b4-bcce12583be0&quot;&gt;&lt;span style=&quot;font-size: 12pt; font-family: Calibri, sans-serif; background-color: transparent; font-variant-numeric: normal; font-variant-east-asian: normal; font-variant-alternates: normal; font-variant-position: normal; text-decoration-skip-ink: none; vertical-align: baseline; white-space-collapse: preserve;&quot;&gt;Id&lt;/span&gt;&lt;/span&gt;" style="ellipse;whiteSpace=wrap;html=1;align=center;fontStyle=4;" vertex="1" parent="1">
          <mxGeometry x="730" y="570" width="100" height="40" as="geometry" />
        </mxCell>
        <mxCell id="Dz1jpCO-yFqrb8lOimei-57" value="" style="endArrow=none;html=1;rounded=0;exitX=0.5;exitY=0;exitDx=0;exitDy=0;entryX=0.5;entryY=1;entryDx=0;entryDy=0;" edge="1" parent="1" source="Dz1jpCO-yFqrb8lOimei-51" target="Dz1jpCO-yFqrb8lOimei-54">
          <mxGeometry relative="1" as="geometry">
            <mxPoint x="530" y="749" as="sourcePoint" />
            <mxPoint x="690" y="749" as="targetPoint" />
          </mxGeometry>
        </mxCell>
        <mxCell id="Dz1jpCO-yFqrb8lOimei-58" value="" style="endArrow=none;html=1;rounded=0;exitX=0.5;exitY=0;exitDx=0;exitDy=0;entryX=0.5;entryY=1;entryDx=0;entryDy=0;" edge="1" parent="1" source="Dz1jpCO-yFqrb8lOimei-52" target="Dz1jpCO-yFqrb8lOimei-51">
          <mxGeometry relative="1" as="geometry">
            <mxPoint x="730" y="1050" as="sourcePoint" />
            <mxPoint x="720" y="1080" as="targetPoint" />
          </mxGeometry>
        </mxCell>
        <mxCell id="Dz1jpCO-yFqrb8lOimei-59" value="" style="endArrow=none;html=1;rounded=0;exitX=0;exitY=0.5;exitDx=0;exitDy=0;entryX=1;entryY=0.5;entryDx=0;entryDy=0;" edge="1" parent="1" source="Dz1jpCO-yFqrb8lOimei-53" target="Dz1jpCO-yFqrb8lOimei-51">
          <mxGeometry relative="1" as="geometry">
            <mxPoint x="800" y="690" as="sourcePoint" />
            <mxPoint x="720" y="630" as="targetPoint" />
          </mxGeometry>
        </mxCell>
        <mxCell id="Dz1jpCO-yFqrb8lOimei-60" value="&lt;span id=&quot;docs-internal-guid-7823fa6c-7fff-fa2a-cf4b-5e1b16beb3ee&quot;&gt;&lt;span style=&quot;font-size: 12pt; font-family: Calibri, sans-serif; background-color: transparent; font-variant-numeric: normal; font-variant-east-asian: normal; font-variant-alternates: normal; font-variant-position: normal; vertical-align: baseline; white-space-collapse: preserve;&quot;&gt;ENTRA_EM&lt;/span&gt;&lt;/span&gt;" style="shape=rhombus;perimeter=rhombusPerimeter;whiteSpace=wrap;html=1;align=center;" vertex="1" parent="1">
          <mxGeometry x="260" y="1330" width="120" height="60" as="geometry" />
        </mxCell>
        <mxCell id="Dz1jpCO-yFqrb8lOimei-61" value="&lt;span id=&quot;docs-internal-guid-89dd8742-7fff-e09b-a8a7-ee018c58d726&quot;&gt;&lt;span style=&quot;font-size: 12pt; font-family: Calibri, sans-serif; background-color: transparent; font-variant-numeric: normal; font-variant-east-asian: normal; font-variant-alternates: normal; font-variant-position: normal; vertical-align: baseline; white-space-collapse: preserve;&quot;&gt;ATOR&lt;/span&gt;&lt;/span&gt;" style="whiteSpace=wrap;html=1;align=center;" vertex="1" parent="1">
          <mxGeometry x="90" y="1340" width="100" height="40" as="geometry" />
        </mxCell>
        <mxCell id="Dz1jpCO-yFqrb8lOimei-62" value="FILME" style="whiteSpace=wrap;html=1;align=center;" vertex="1" parent="1">
          <mxGeometry x="450" y="1340" width="100" height="40" as="geometry" />
        </mxCell>
        <mxCell id="Dz1jpCO-yFqrb8lOimei-65" value="" style="endArrow=none;html=1;rounded=0;exitX=1;exitY=0.5;exitDx=0;exitDy=0;entryX=0;entryY=0.5;entryDx=0;entryDy=0;" edge="1" parent="1" source="Dz1jpCO-yFqrb8lOimei-61" target="Dz1jpCO-yFqrb8lOimei-60">
          <mxGeometry relative="1" as="geometry">
            <mxPoint x="260" y="1150" as="sourcePoint" />
            <mxPoint x="420" y="1150" as="targetPoint" />
          </mxGeometry>
        </mxCell>
        <mxCell id="Dz1jpCO-yFqrb8lOimei-66" value="M" style="resizable=0;html=1;whiteSpace=wrap;align=left;verticalAlign=bottom;" connectable="0" vertex="1" parent="Dz1jpCO-yFqrb8lOimei-65">
          <mxGeometry x="-1" relative="1" as="geometry" />
        </mxCell>
        <mxCell id="Dz1jpCO-yFqrb8lOimei-68" value="&lt;span id=&quot;docs-internal-guid-e553f0b9-7fff-4832-d562-78277b5364d0&quot;&gt;&lt;span style=&quot;font-size: 12pt; font-family: Calibri, sans-serif; background-color: transparent; font-variant-numeric: normal; font-variant-east-asian: normal; font-variant-alternates: normal; font-variant-position: normal; vertical-align: baseline; white-space-collapse: preserve;&quot;&gt;REALIZA&lt;/span&gt;&lt;/span&gt;" style="shape=rhombus;perimeter=rhombusPerimeter;whiteSpace=wrap;html=1;align=center;" vertex="1" parent="1">
          <mxGeometry x="440" y="1510" width="120" height="60" as="geometry" />
        </mxCell>
        <mxCell id="Dz1jpCO-yFqrb8lOimei-69" value="&lt;span style=&quot;font-family: Calibri, sans-serif; font-size: 16px; white-space-collapse: preserve;&quot;&gt;REALIZADOR&lt;/span&gt;" style="whiteSpace=wrap;html=1;align=center;" vertex="1" parent="1">
          <mxGeometry x="230" y="1520" width="100" height="40" as="geometry" />
        </mxCell>
        <mxCell id="Dz1jpCO-yFqrb8lOimei-71" value="" style="shape=link;html=1;rounded=0;entryX=0;entryY=0.5;entryDx=0;entryDy=0;exitX=1;exitY=0.5;exitDx=0;exitDy=0;" edge="1" parent="1" source="Dz1jpCO-yFqrb8lOimei-60" target="Dz1jpCO-yFqrb8lOimei-62">
          <mxGeometry relative="1" as="geometry">
            <mxPoint x="260" y="1250" as="sourcePoint" />
            <mxPoint x="420" y="1250" as="targetPoint" />
          </mxGeometry>
        </mxCell>
        <mxCell id="Dz1jpCO-yFqrb8lOimei-72" value="N" style="resizable=0;html=1;whiteSpace=wrap;align=right;verticalAlign=bottom;" connectable="0" vertex="1" parent="Dz1jpCO-yFqrb8lOimei-71">
          <mxGeometry x="1" relative="1" as="geometry" />
        </mxCell>
        <mxCell id="Dz1jpCO-yFqrb8lOimei-74" value="" style="endArrow=none;html=1;rounded=0;entryX=1;entryY=0.5;entryDx=0;entryDy=0;exitX=0;exitY=0.5;exitDx=0;exitDy=0;" edge="1" parent="1" source="Dz1jpCO-yFqrb8lOimei-68" target="Dz1jpCO-yFqrb8lOimei-69">
          <mxGeometry relative="1" as="geometry">
            <mxPoint x="260" y="1250" as="sourcePoint" />
            <mxPoint x="420" y="1250" as="targetPoint" />
          </mxGeometry>
        </mxCell>
        <mxCell id="Dz1jpCO-yFqrb8lOimei-75" value="1" style="resizable=0;html=1;whiteSpace=wrap;align=right;verticalAlign=bottom;" connectable="0" vertex="1" parent="Dz1jpCO-yFqrb8lOimei-74">
          <mxGeometry x="1" relative="1" as="geometry" />
        </mxCell>
        <mxCell id="Dz1jpCO-yFqrb8lOimei-76" value="" style="shape=link;html=1;rounded=0;exitX=0.5;exitY=0;exitDx=0;exitDy=0;entryX=0.5;entryY=1;entryDx=0;entryDy=0;" edge="1" parent="1" source="Dz1jpCO-yFqrb8lOimei-68" target="Dz1jpCO-yFqrb8lOimei-62">
          <mxGeometry relative="1" as="geometry">
            <mxPoint x="260" y="1250" as="sourcePoint" />
            <mxPoint x="460" y="1510" as="targetPoint" />
          </mxGeometry>
        </mxCell>
        <mxCell id="Dz1jpCO-yFqrb8lOimei-77" value="N" style="resizable=0;html=1;whiteSpace=wrap;align=right;verticalAlign=bottom;" connectable="0" vertex="1" parent="Dz1jpCO-yFqrb8lOimei-76">
          <mxGeometry x="1" relative="1" as="geometry" />
        </mxCell>
        <mxCell id="Dz1jpCO-yFqrb8lOimei-78" value="&lt;span id=&quot;docs-internal-guid-0f9f2588-7fff-1611-3b4c-19e572bf6b4d&quot;&gt;&lt;span style=&quot;font-size: 12pt; font-family: Calibri, sans-serif; background-color: transparent; font-variant-numeric: normal; font-variant-east-asian: normal; font-variant-alternates: normal; font-variant-position: normal; vertical-align: baseline; white-space-collapse: preserve;&quot;&gt;PRODUTOR_DE&lt;/span&gt;&lt;/span&gt;" style="shape=rhombus;perimeter=rhombusPerimeter;whiteSpace=wrap;html=1;align=center;" vertex="1" parent="1">
          <mxGeometry x="435" y="1210" width="130" height="70" as="geometry" />
        </mxCell>
        <mxCell id="Dz1jpCO-yFqrb8lOimei-80" value="&lt;span style=&quot;font-family: Calibri, sans-serif; font-size: 16px; white-space-collapse: preserve;&quot;&gt;PRODUTOR&lt;/span&gt;" style="whiteSpace=wrap;html=1;align=center;" vertex="1" parent="1">
          <mxGeometry x="450" y="1140" width="100" height="40" as="geometry" />
        </mxCell>
        <mxCell id="Dz1jpCO-yFqrb8lOimei-81" value="" style="endArrow=none;html=1;rounded=0;entryX=0.5;entryY=1;entryDx=0;entryDy=0;exitX=0.5;exitY=0;exitDx=0;exitDy=0;" edge="1" parent="1" source="Dz1jpCO-yFqrb8lOimei-78" target="Dz1jpCO-yFqrb8lOimei-80">
          <mxGeometry relative="1" as="geometry">
            <mxPoint x="270" y="1410" as="sourcePoint" />
            <mxPoint x="190" y="1410" as="targetPoint" />
          </mxGeometry>
        </mxCell>
        <mxCell id="Dz1jpCO-yFqrb8lOimei-82" value="1" style="resizable=0;html=1;whiteSpace=wrap;align=right;verticalAlign=bottom;" connectable="0" vertex="1" parent="Dz1jpCO-yFqrb8lOimei-81">
          <mxGeometry x="1" relative="1" as="geometry" />
        </mxCell>
        <mxCell id="Dz1jpCO-yFqrb8lOimei-83" value="" style="shape=link;html=1;rounded=0;exitX=0.5;exitY=1;exitDx=0;exitDy=0;entryX=0.5;entryY=0;entryDx=0;entryDy=0;" edge="1" parent="1" source="Dz1jpCO-yFqrb8lOimei-78" target="Dz1jpCO-yFqrb8lOimei-62">
          <mxGeometry relative="1" as="geometry">
            <mxPoint x="510" y="1520" as="sourcePoint" />
            <mxPoint x="510" y="1390" as="targetPoint" />
          </mxGeometry>
        </mxCell>
        <mxCell id="Dz1jpCO-yFqrb8lOimei-84" value="N" style="resizable=0;html=1;whiteSpace=wrap;align=right;verticalAlign=bottom;" connectable="0" vertex="1" parent="Dz1jpCO-yFqrb8lOimei-83">
          <mxGeometry x="1" relative="1" as="geometry" />
        </mxCell>
        <mxCell id="Dz1jpCO-yFqrb8lOimei-85" value="&lt;span id=&quot;docs-internal-guid-8096116b-7fff-cde9-66d8-596ea15d6465&quot;&gt;&lt;span style=&quot;font-size: 12pt; font-family: Calibri, sans-serif; background-color: transparent; font-variant-numeric: normal; font-variant-east-asian: normal; font-variant-alternates: normal; font-variant-position: normal; vertical-align: baseline; white-space-collapse: preserve;&quot;&gt;POSSUEM&lt;/span&gt;&lt;/span&gt;" style="shape=rhombus;perimeter=rhombusPerimeter;whiteSpace=wrap;html=1;align=center;" vertex="1" parent="1">
          <mxGeometry x="610" y="1330" width="120" height="60" as="geometry" />
        </mxCell>
        <mxCell id="Dz1jpCO-yFqrb8lOimei-86" value="&lt;span style=&quot;font-family: Calibri, sans-serif; font-size: 16px; white-space-collapse: preserve;&quot;&gt;ORCAMENTO&lt;/span&gt;" style="whiteSpace=wrap;html=1;align=center;" vertex="1" parent="1">
          <mxGeometry x="790" y="1340" width="100" height="40" as="geometry" />
        </mxCell>
        <mxCell id="Dz1jpCO-yFqrb8lOimei-87" value="" style="shape=link;html=1;rounded=0;entryX=1;entryY=0.5;entryDx=0;entryDy=0;exitX=0;exitY=0.5;exitDx=0;exitDy=0;" edge="1" parent="1" source="Dz1jpCO-yFqrb8lOimei-85" target="Dz1jpCO-yFqrb8lOimei-62">
          <mxGeometry relative="1" as="geometry">
            <mxPoint x="630" y="1440" as="sourcePoint" />
            <mxPoint x="510" y="1390" as="targetPoint" />
          </mxGeometry>
        </mxCell>
        <mxCell id="Dz1jpCO-yFqrb8lOimei-88" value="N" style="resizable=0;html=1;whiteSpace=wrap;align=right;verticalAlign=bottom;" connectable="0" vertex="1" parent="Dz1jpCO-yFqrb8lOimei-87">
          <mxGeometry x="1" relative="1" as="geometry" />
        </mxCell>
        <mxCell id="Dz1jpCO-yFqrb8lOimei-91" value="" style="shape=link;html=1;rounded=0;entryX=0;entryY=0.5;entryDx=0;entryDy=0;exitX=1;exitY=0.5;exitDx=0;exitDy=0;" edge="1" parent="1" source="Dz1jpCO-yFqrb8lOimei-85" target="Dz1jpCO-yFqrb8lOimei-86">
          <mxGeometry relative="1" as="geometry">
            <mxPoint x="640" y="1370" as="sourcePoint" />
            <mxPoint x="560" y="1370" as="targetPoint" />
          </mxGeometry>
        </mxCell>
        <mxCell id="Dz1jpCO-yFqrb8lOimei-92" value="M" style="resizable=0;html=1;whiteSpace=wrap;align=right;verticalAlign=bottom;" connectable="0" vertex="1" parent="Dz1jpCO-yFqrb8lOimei-91">
          <mxGeometry x="1" relative="1" as="geometry" />
        </mxCell>
      </root>
    </mxGraphModel>
  </diagram>
</mxfile>
